<?xml version="1.0" encoding="utf-8" standalone="no"?>
<!DOCTYPE svg PUBLIC "-//W3C//DTD SVG 1.1//EN"
  "http://www.w3.org/Graphics/SVG/1.1/DTD/svg11.dtd">
<!-- Created with matplotlib (https://matplotlib.org/) -->
<svg height="288pt" version="1.1" viewBox="0 0 432 288" width="432pt" xmlns="http://www.w3.org/2000/svg" xmlns:xlink="http://www.w3.org/1999/xlink">
 <metadata>
  <rdf:RDF xmlns:cc="http://creativecommons.org/ns#" xmlns:dc="http://purl.org/dc/elements/1.1/" xmlns:rdf="http://www.w3.org/1999/02/22-rdf-syntax-ns#">
   <cc:Work>
    <dc:type rdf:resource="http://purl.org/dc/dcmitype/StillImage"/>
    <dc:date>2020-12-18T10:08:16.618911</dc:date>
    <dc:format>image/svg+xml</dc:format>
    <dc:creator>
     <cc:Agent>
      <dc:title>Matplotlib v3.3.2, https://matplotlib.org/</dc:title>
     </cc:Agent>
    </dc:creator>
   </cc:Work>
  </rdf:RDF>
 </metadata>
 <defs>
  <style type="text/css">*{stroke-linecap:butt;stroke-linejoin:round;}</style>
 </defs>
 <g id="figure_1">
  <g id="patch_1">
   <path d="M 0 288 
L 432 288 
L 432 0 
L 0 0 
z
" style="fill:#ffffff;"/>
  </g>
  <g id="axes_1">
   <g id="patch_2">
    <path d="M 54 252 
L 388.8 252 
L 388.8 34.56 
L 54 34.56 
z
" style="fill:#ffffff;"/>
   </g>
   <g id="matplotlib.axis_1">
    <g id="xtick_1">
     <g id="line2d_1">
      <path clip-path="url(#pc42d58ba3c)" d="M 107.263636 252 
L 107.263636 34.56 
" style="fill:none;stroke:#cccccc;stroke-linecap:round;stroke-width:0.8;"/>
     </g>
     <g id="text_1">
      <!-- 0 -->
      <g style="fill:#262626;" transform="translate(105.039261 264.72625)scale(0.08 -0.08)">
       <defs>
        <path d="M 4.15625 35.296875 
Q 4.15625 48 6.765625 55.734375 
Q 9.375 63.484375 14.515625 67.671875 
Q 19.671875 71.875 27.484375 71.875 
Q 33.25 71.875 37.59375 69.546875 
Q 41.9375 67.234375 44.765625 62.859375 
Q 47.609375 58.5 49.21875 52.21875 
Q 50.828125 45.953125 50.828125 35.296875 
Q 50.828125 22.703125 48.234375 14.96875 
Q 45.65625 7.234375 40.5 3 
Q 35.359375 -1.21875 27.484375 -1.21875 
Q 17.140625 -1.21875 11.234375 6.203125 
Q 4.15625 15.140625 4.15625 35.296875 
z
M 13.1875 35.296875 
Q 13.1875 17.671875 17.3125 11.828125 
Q 21.4375 6 27.484375 6 
Q 33.546875 6 37.671875 11.859375 
Q 41.796875 17.71875 41.796875 35.296875 
Q 41.796875 52.984375 37.671875 58.78125 
Q 33.546875 64.59375 27.390625 64.59375 
Q 21.34375 64.59375 17.71875 59.46875 
Q 13.1875 52.9375 13.1875 35.296875 
z
" id="ArialMT-48"/>
       </defs>
       <use xlink:href="#ArialMT-48"/>
      </g>
     </g>
    </g>
    <g id="xtick_2">
     <g id="line2d_2">
      <path clip-path="url(#pc42d58ba3c)" d="M 161.614286 252 
L 161.614286 34.56 
" style="fill:none;stroke:#cccccc;stroke-linecap:round;stroke-width:0.8;"/>
     </g>
     <g id="text_2">
      <!-- 200 -->
      <g style="fill:#262626;" transform="translate(154.941161 264.72625)scale(0.08 -0.08)">
       <defs>
        <path d="M 50.34375 8.453125 
L 50.34375 0 
L 3.03125 0 
Q 2.9375 3.171875 4.046875 6.109375 
Q 5.859375 10.9375 9.828125 15.625 
Q 13.8125 20.3125 21.34375 26.46875 
Q 33.015625 36.03125 37.109375 41.625 
Q 41.21875 47.21875 41.21875 52.203125 
Q 41.21875 57.421875 37.46875 61 
Q 33.734375 64.59375 27.734375 64.59375 
Q 21.390625 64.59375 17.578125 60.78125 
Q 13.765625 56.984375 13.71875 50.25 
L 4.6875 51.171875 
Q 5.609375 61.28125 11.65625 66.578125 
Q 17.71875 71.875 27.9375 71.875 
Q 38.234375 71.875 44.234375 66.15625 
Q 50.25 60.453125 50.25 52 
Q 50.25 47.703125 48.484375 43.546875 
Q 46.734375 39.40625 42.65625 34.8125 
Q 38.578125 30.21875 29.109375 22.21875 
Q 21.1875 15.578125 18.9375 13.203125 
Q 16.703125 10.84375 15.234375 8.453125 
z
" id="ArialMT-50"/>
       </defs>
       <use xlink:href="#ArialMT-50"/>
       <use x="55.615234" xlink:href="#ArialMT-48"/>
       <use x="111.230469" xlink:href="#ArialMT-48"/>
      </g>
     </g>
    </g>
    <g id="xtick_3">
     <g id="line2d_3">
      <path clip-path="url(#pc42d58ba3c)" d="M 215.964935 252 
L 215.964935 34.56 
" style="fill:none;stroke:#cccccc;stroke-linecap:round;stroke-width:0.8;"/>
     </g>
     <g id="text_3">
      <!-- 400 -->
      <g style="fill:#262626;" transform="translate(209.29181 264.72625)scale(0.08 -0.08)">
       <defs>
        <path d="M 32.328125 0 
L 32.328125 17.140625 
L 1.265625 17.140625 
L 1.265625 25.203125 
L 33.9375 71.578125 
L 41.109375 71.578125 
L 41.109375 25.203125 
L 50.78125 25.203125 
L 50.78125 17.140625 
L 41.109375 17.140625 
L 41.109375 0 
z
M 32.328125 25.203125 
L 32.328125 57.46875 
L 9.90625 25.203125 
z
" id="ArialMT-52"/>
       </defs>
       <use xlink:href="#ArialMT-52"/>
       <use x="55.615234" xlink:href="#ArialMT-48"/>
       <use x="111.230469" xlink:href="#ArialMT-48"/>
      </g>
     </g>
    </g>
    <g id="xtick_4">
     <g id="line2d_4">
      <path clip-path="url(#pc42d58ba3c)" d="M 270.315584 252 
L 270.315584 34.56 
" style="fill:none;stroke:#cccccc;stroke-linecap:round;stroke-width:0.8;"/>
     </g>
     <g id="text_4">
      <!-- 600 -->
      <g style="fill:#262626;" transform="translate(263.642459 264.72625)scale(0.08 -0.08)">
       <defs>
        <path d="M 49.75 54.046875 
L 41.015625 53.375 
Q 39.84375 58.546875 37.703125 60.890625 
Q 34.125 64.65625 28.90625 64.65625 
Q 24.703125 64.65625 21.53125 62.3125 
Q 17.390625 59.28125 14.984375 53.46875 
Q 12.59375 47.65625 12.5 36.921875 
Q 15.671875 41.75 20.265625 44.09375 
Q 24.859375 46.4375 29.890625 46.4375 
Q 38.671875 46.4375 44.84375 39.96875 
Q 51.03125 33.5 51.03125 23.25 
Q 51.03125 16.5 48.125 10.71875 
Q 45.21875 4.9375 40.140625 1.859375 
Q 35.0625 -1.21875 28.609375 -1.21875 
Q 17.625 -1.21875 10.6875 6.859375 
Q 3.765625 14.9375 3.765625 33.5 
Q 3.765625 54.25 11.421875 63.671875 
Q 18.109375 71.875 29.4375 71.875 
Q 37.890625 71.875 43.28125 67.140625 
Q 48.6875 62.40625 49.75 54.046875 
z
M 13.875 23.1875 
Q 13.875 18.65625 15.796875 14.5 
Q 17.71875 10.359375 21.1875 8.171875 
Q 24.65625 6 28.46875 6 
Q 34.03125 6 38.03125 10.484375 
Q 42.046875 14.984375 42.046875 22.703125 
Q 42.046875 30.125 38.078125 34.390625 
Q 34.125 38.671875 28.125 38.671875 
Q 22.171875 38.671875 18.015625 34.390625 
Q 13.875 30.125 13.875 23.1875 
z
" id="ArialMT-54"/>
       </defs>
       <use xlink:href="#ArialMT-54"/>
       <use x="55.615234" xlink:href="#ArialMT-48"/>
       <use x="111.230469" xlink:href="#ArialMT-48"/>
      </g>
     </g>
    </g>
    <g id="xtick_5">
     <g id="line2d_5">
      <path clip-path="url(#pc42d58ba3c)" d="M 324.666234 252 
L 324.666234 34.56 
" style="fill:none;stroke:#cccccc;stroke-linecap:round;stroke-width:0.8;"/>
     </g>
     <g id="text_5">
      <!-- 800 -->
      <g style="fill:#262626;" transform="translate(317.993109 264.72625)scale(0.08 -0.08)">
       <defs>
        <path d="M 17.671875 38.8125 
Q 12.203125 40.828125 9.5625 44.53125 
Q 6.9375 48.25 6.9375 53.421875 
Q 6.9375 61.234375 12.546875 66.546875 
Q 18.171875 71.875 27.484375 71.875 
Q 36.859375 71.875 42.578125 66.421875 
Q 48.296875 60.984375 48.296875 53.171875 
Q 48.296875 48.1875 45.671875 44.5 
Q 43.0625 40.828125 37.75 38.8125 
Q 44.34375 36.671875 47.78125 31.875 
Q 51.21875 27.09375 51.21875 20.453125 
Q 51.21875 11.28125 44.71875 5.03125 
Q 38.234375 -1.21875 27.640625 -1.21875 
Q 17.046875 -1.21875 10.546875 5.046875 
Q 4.046875 11.328125 4.046875 20.703125 
Q 4.046875 27.6875 7.59375 32.390625 
Q 11.140625 37.109375 17.671875 38.8125 
z
M 15.921875 53.71875 
Q 15.921875 48.640625 19.1875 45.40625 
Q 22.46875 42.1875 27.6875 42.1875 
Q 32.765625 42.1875 36.015625 45.375 
Q 39.265625 48.578125 39.265625 53.21875 
Q 39.265625 58.0625 35.90625 61.359375 
Q 32.5625 64.65625 27.59375 64.65625 
Q 22.5625 64.65625 19.234375 61.421875 
Q 15.921875 58.203125 15.921875 53.71875 
z
M 13.09375 20.65625 
Q 13.09375 16.890625 14.875 13.375 
Q 16.65625 9.859375 20.171875 7.921875 
Q 23.6875 6 27.734375 6 
Q 34.03125 6 38.125 10.046875 
Q 42.234375 14.109375 42.234375 20.359375 
Q 42.234375 26.703125 38.015625 30.859375 
Q 33.796875 35.015625 27.4375 35.015625 
Q 21.234375 35.015625 17.15625 30.90625 
Q 13.09375 26.8125 13.09375 20.65625 
z
" id="ArialMT-56"/>
       </defs>
       <use xlink:href="#ArialMT-56"/>
       <use x="55.615234" xlink:href="#ArialMT-48"/>
       <use x="111.230469" xlink:href="#ArialMT-48"/>
      </g>
     </g>
    </g>
    <g id="xtick_6">
     <g id="line2d_6">
      <path clip-path="url(#pc42d58ba3c)" d="M 379.016883 252 
L 379.016883 34.56 
" style="fill:none;stroke:#cccccc;stroke-linecap:round;stroke-width:0.8;"/>
     </g>
     <g id="text_6">
      <!-- 1000 -->
      <g style="fill:#262626;" transform="translate(370.119383 264.72625)scale(0.08 -0.08)">
       <defs>
        <path d="M 37.25 0 
L 28.46875 0 
L 28.46875 56 
Q 25.296875 52.984375 20.140625 49.953125 
Q 14.984375 46.921875 10.890625 45.40625 
L 10.890625 53.90625 
Q 18.265625 57.375 23.78125 62.296875 
Q 29.296875 67.234375 31.59375 71.875 
L 37.25 71.875 
z
" id="ArialMT-49"/>
       </defs>
       <use xlink:href="#ArialMT-49"/>
       <use x="55.615234" xlink:href="#ArialMT-48"/>
       <use x="111.230469" xlink:href="#ArialMT-48"/>
       <use x="166.845703" xlink:href="#ArialMT-48"/>
      </g>
     </g>
    </g>
    <g id="text_7">
     <!-- g/c/d -->
     <g style="fill:#262626;" transform="translate(211.426875 276.395)scale(0.08 -0.08)">
      <defs>
       <path d="M 45.40625 27.984375 
Q 45.40625 37.75 41.375 43.109375 
Q 37.359375 48.484375 30.078125 48.484375 
Q 22.859375 48.484375 18.828125 43.109375 
Q 14.796875 37.75 14.796875 27.984375 
Q 14.796875 18.265625 18.828125 12.890625 
Q 22.859375 7.515625 30.078125 7.515625 
Q 37.359375 7.515625 41.375 12.890625 
Q 45.40625 18.265625 45.40625 27.984375 
z
M 54.390625 6.78125 
Q 54.390625 -7.171875 48.1875 -13.984375 
Q 42 -20.796875 29.203125 -20.796875 
Q 24.46875 -20.796875 20.265625 -20.09375 
Q 16.0625 -19.390625 12.109375 -17.921875 
L 12.109375 -9.1875 
Q 16.0625 -11.328125 19.921875 -12.34375 
Q 23.78125 -13.375 27.78125 -13.375 
Q 36.625 -13.375 41.015625 -8.765625 
Q 45.40625 -4.15625 45.40625 5.171875 
L 45.40625 9.625 
Q 42.625 4.78125 38.28125 2.390625 
Q 33.9375 0 27.875 0 
Q 17.828125 0 11.671875 7.65625 
Q 5.515625 15.328125 5.515625 27.984375 
Q 5.515625 40.671875 11.671875 48.328125 
Q 17.828125 56 27.875 56 
Q 33.9375 56 38.28125 53.609375 
Q 42.625 51.21875 45.40625 46.390625 
L 45.40625 54.6875 
L 54.390625 54.6875 
z
" id="DejaVuSans-103"/>
       <path d="M 25.390625 72.90625 
L 33.6875 72.90625 
L 8.296875 -9.28125 
L 0 -9.28125 
z
" id="DejaVuSans-47"/>
       <path d="M 48.78125 52.59375 
L 48.78125 44.1875 
Q 44.96875 46.296875 41.140625 47.34375 
Q 37.3125 48.390625 33.40625 48.390625 
Q 24.65625 48.390625 19.8125 42.84375 
Q 14.984375 37.3125 14.984375 27.296875 
Q 14.984375 17.28125 19.8125 11.734375 
Q 24.65625 6.203125 33.40625 6.203125 
Q 37.3125 6.203125 41.140625 7.25 
Q 44.96875 8.296875 48.78125 10.40625 
L 48.78125 2.09375 
Q 45.015625 0.34375 40.984375 -0.53125 
Q 36.96875 -1.421875 32.421875 -1.421875 
Q 20.0625 -1.421875 12.78125 6.34375 
Q 5.515625 14.109375 5.515625 27.296875 
Q 5.515625 40.671875 12.859375 48.328125 
Q 20.21875 56 33.015625 56 
Q 37.15625 56 41.109375 55.140625 
Q 45.0625 54.296875 48.78125 52.59375 
z
" id="DejaVuSans-99"/>
       <path d="M 45.40625 46.390625 
L 45.40625 75.984375 
L 54.390625 75.984375 
L 54.390625 0 
L 45.40625 0 
L 45.40625 8.203125 
Q 42.578125 3.328125 38.25 0.953125 
Q 33.9375 -1.421875 27.875 -1.421875 
Q 17.96875 -1.421875 11.734375 6.484375 
Q 5.515625 14.40625 5.515625 27.296875 
Q 5.515625 40.1875 11.734375 48.09375 
Q 17.96875 56 27.875 56 
Q 33.9375 56 38.25 53.625 
Q 42.578125 51.265625 45.40625 46.390625 
z
M 14.796875 27.296875 
Q 14.796875 17.390625 18.875 11.75 
Q 22.953125 6.109375 30.078125 6.109375 
Q 37.203125 6.109375 41.296875 11.75 
Q 45.40625 17.390625 45.40625 27.296875 
Q 45.40625 37.203125 41.296875 42.84375 
Q 37.203125 48.484375 30.078125 48.484375 
Q 22.953125 48.484375 18.875 42.84375 
Q 14.796875 37.203125 14.796875 27.296875 
z
" id="DejaVuSans-100"/>
      </defs>
      <use xlink:href="#DejaVuSans-103"/>
      <use x="63.476562" xlink:href="#DejaVuSans-47"/>
      <use x="97.167969" xlink:href="#DejaVuSans-99"/>
      <use x="152.148438" xlink:href="#DejaVuSans-47"/>
      <use x="185.839844" xlink:href="#DejaVuSans-100"/>
     </g>
    </g>
   </g>
   <g id="matplotlib.axis_2">
    <g id="ytick_1">
     <g id="line2d_7">
      <path clip-path="url(#pc42d58ba3c)" d="M 54 252 
L 388.8 252 
" style="fill:none;stroke:#cccccc;stroke-linecap:round;stroke-width:0.8;"/>
     </g>
     <g id="text_8">
      <!-- 0.00 -->
      <g style="fill:#262626;" transform="translate(29.485156 255.221016)scale(0.09 -0.09)">
       <defs>
        <path d="M 9.078125 0 
L 9.078125 10.015625 
L 19.09375 10.015625 
L 19.09375 0 
z
" id="ArialMT-46"/>
       </defs>
       <use xlink:href="#ArialMT-48"/>
       <use x="55.615234" xlink:href="#ArialMT-46"/>
       <use x="83.398438" xlink:href="#ArialMT-48"/>
       <use x="139.013672" xlink:href="#ArialMT-48"/>
      </g>
     </g>
    </g>
    <g id="ytick_2">
     <g id="line2d_8">
      <path clip-path="url(#pc42d58ba3c)" d="M 54 208.512 
L 388.8 208.512 
" style="fill:none;stroke:#cccccc;stroke-linecap:round;stroke-width:0.8;"/>
     </g>
     <g id="text_9">
      <!-- 0.05 -->
      <g style="fill:#262626;" transform="translate(29.485156 211.733016)scale(0.09 -0.09)">
       <defs>
        <path d="M 4.15625 18.75 
L 13.375 19.53125 
Q 14.40625 12.796875 18.140625 9.390625 
Q 21.875 6 27.15625 6 
Q 33.5 6 37.890625 10.78125 
Q 42.28125 15.578125 42.28125 23.484375 
Q 42.28125 31 38.0625 35.34375 
Q 33.84375 39.703125 27 39.703125 
Q 22.75 39.703125 19.328125 37.765625 
Q 15.921875 35.84375 13.96875 32.765625 
L 5.71875 33.84375 
L 12.640625 70.609375 
L 48.25 70.609375 
L 48.25 62.203125 
L 19.671875 62.203125 
L 15.828125 42.96875 
Q 22.265625 47.46875 29.34375 47.46875 
Q 38.71875 47.46875 45.15625 40.96875 
Q 51.609375 34.46875 51.609375 24.265625 
Q 51.609375 14.546875 45.953125 7.46875 
Q 39.0625 -1.21875 27.15625 -1.21875 
Q 17.390625 -1.21875 11.203125 4.25 
Q 5.03125 9.71875 4.15625 18.75 
z
" id="ArialMT-53"/>
       </defs>
       <use xlink:href="#ArialMT-48"/>
       <use x="55.615234" xlink:href="#ArialMT-46"/>
       <use x="83.398438" xlink:href="#ArialMT-48"/>
       <use x="139.013672" xlink:href="#ArialMT-53"/>
      </g>
     </g>
    </g>
    <g id="ytick_3">
     <g id="line2d_9">
      <path clip-path="url(#pc42d58ba3c)" d="M 54 165.024 
L 388.8 165.024 
" style="fill:none;stroke:#cccccc;stroke-linecap:round;stroke-width:0.8;"/>
     </g>
     <g id="text_10">
      <!-- 0.10 -->
      <g style="fill:#262626;" transform="translate(29.485156 168.245016)scale(0.09 -0.09)">
       <use xlink:href="#ArialMT-48"/>
       <use x="55.615234" xlink:href="#ArialMT-46"/>
       <use x="83.398438" xlink:href="#ArialMT-49"/>
       <use x="139.013672" xlink:href="#ArialMT-48"/>
      </g>
     </g>
    </g>
    <g id="ytick_4">
     <g id="line2d_10">
      <path clip-path="url(#pc42d58ba3c)" d="M 54 121.536 
L 388.8 121.536 
" style="fill:none;stroke:#cccccc;stroke-linecap:round;stroke-width:0.8;"/>
     </g>
     <g id="text_11">
      <!-- 0.15 -->
      <g style="fill:#262626;" transform="translate(29.485156 124.757016)scale(0.09 -0.09)">
       <use xlink:href="#ArialMT-48"/>
       <use x="55.615234" xlink:href="#ArialMT-46"/>
       <use x="83.398438" xlink:href="#ArialMT-49"/>
       <use x="139.013672" xlink:href="#ArialMT-53"/>
      </g>
     </g>
    </g>
    <g id="ytick_5">
     <g id="line2d_11">
      <path clip-path="url(#pc42d58ba3c)" d="M 54 78.048 
L 388.8 78.048 
" style="fill:none;stroke:#cccccc;stroke-linecap:round;stroke-width:0.8;"/>
     </g>
     <g id="text_12">
      <!-- 0.20 -->
      <g style="fill:#262626;" transform="translate(29.485156 81.269016)scale(0.09 -0.09)">
       <use xlink:href="#ArialMT-48"/>
       <use x="55.615234" xlink:href="#ArialMT-46"/>
       <use x="83.398438" xlink:href="#ArialMT-50"/>
       <use x="139.013672" xlink:href="#ArialMT-48"/>
      </g>
     </g>
    </g>
    <g id="ytick_6">
     <g id="line2d_12">
      <path clip-path="url(#pc42d58ba3c)" d="M 54 34.56 
L 388.8 34.56 
" style="fill:none;stroke:#cccccc;stroke-linecap:round;stroke-width:0.8;"/>
     </g>
     <g id="text_13">
      <!-- 0.25 -->
      <g style="fill:#262626;" transform="translate(29.485156 37.781016)scale(0.09 -0.09)">
       <use xlink:href="#ArialMT-48"/>
       <use x="55.615234" xlink:href="#ArialMT-46"/>
       <use x="83.398438" xlink:href="#ArialMT-50"/>
       <use x="139.013672" xlink:href="#ArialMT-53"/>
      </g>
     </g>
    </g>
    <g id="text_14">
     <!-- Density -->
     <g style="fill:#262626;" transform="translate(23.821406 158.486875)rotate(-90)scale(0.08 -0.08)">
      <defs>
       <path d="M 19.671875 64.796875 
L 19.671875 8.109375 
L 31.59375 8.109375 
Q 46.6875 8.109375 53.6875 14.9375 
Q 60.6875 21.78125 60.6875 36.53125 
Q 60.6875 51.171875 53.6875 57.984375 
Q 46.6875 64.796875 31.59375 64.796875 
z
M 9.8125 72.90625 
L 30.078125 72.90625 
Q 51.265625 72.90625 61.171875 64.09375 
Q 71.09375 55.28125 71.09375 36.53125 
Q 71.09375 17.671875 61.125 8.828125 
Q 51.171875 0 30.078125 0 
L 9.8125 0 
z
" id="DejaVuSans-68"/>
       <path d="M 56.203125 29.59375 
L 56.203125 25.203125 
L 14.890625 25.203125 
Q 15.484375 15.921875 20.484375 11.0625 
Q 25.484375 6.203125 34.421875 6.203125 
Q 39.59375 6.203125 44.453125 7.46875 
Q 49.3125 8.734375 54.109375 11.28125 
L 54.109375 2.78125 
Q 49.265625 0.734375 44.1875 -0.34375 
Q 39.109375 -1.421875 33.890625 -1.421875 
Q 20.796875 -1.421875 13.15625 6.1875 
Q 5.515625 13.8125 5.515625 26.8125 
Q 5.515625 40.234375 12.765625 48.109375 
Q 20.015625 56 32.328125 56 
Q 43.359375 56 49.78125 48.890625 
Q 56.203125 41.796875 56.203125 29.59375 
z
M 47.21875 32.234375 
Q 47.125 39.59375 43.09375 43.984375 
Q 39.0625 48.390625 32.421875 48.390625 
Q 24.90625 48.390625 20.390625 44.140625 
Q 15.875 39.890625 15.1875 32.171875 
z
" id="DejaVuSans-101"/>
       <path d="M 54.890625 33.015625 
L 54.890625 0 
L 45.90625 0 
L 45.90625 32.71875 
Q 45.90625 40.484375 42.875 44.328125 
Q 39.84375 48.1875 33.796875 48.1875 
Q 26.515625 48.1875 22.3125 43.546875 
Q 18.109375 38.921875 18.109375 30.90625 
L 18.109375 0 
L 9.078125 0 
L 9.078125 54.6875 
L 18.109375 54.6875 
L 18.109375 46.1875 
Q 21.34375 51.125 25.703125 53.5625 
Q 30.078125 56 35.796875 56 
Q 45.21875 56 50.046875 50.171875 
Q 54.890625 44.34375 54.890625 33.015625 
z
" id="DejaVuSans-110"/>
       <path d="M 44.28125 53.078125 
L 44.28125 44.578125 
Q 40.484375 46.53125 36.375 47.5 
Q 32.28125 48.484375 27.875 48.484375 
Q 21.1875 48.484375 17.84375 46.4375 
Q 14.5 44.390625 14.5 40.28125 
Q 14.5 37.15625 16.890625 35.375 
Q 19.28125 33.59375 26.515625 31.984375 
L 29.59375 31.296875 
Q 39.15625 29.25 43.1875 25.515625 
Q 47.21875 21.78125 47.21875 15.09375 
Q 47.21875 7.46875 41.1875 3.015625 
Q 35.15625 -1.421875 24.609375 -1.421875 
Q 20.21875 -1.421875 15.453125 -0.5625 
Q 10.6875 0.296875 5.421875 2 
L 5.421875 11.28125 
Q 10.40625 8.6875 15.234375 7.390625 
Q 20.0625 6.109375 24.8125 6.109375 
Q 31.15625 6.109375 34.5625 8.28125 
Q 37.984375 10.453125 37.984375 14.40625 
Q 37.984375 18.0625 35.515625 20.015625 
Q 33.0625 21.96875 24.703125 23.78125 
L 21.578125 24.515625 
Q 13.234375 26.265625 9.515625 29.90625 
Q 5.8125 33.546875 5.8125 39.890625 
Q 5.8125 47.609375 11.28125 51.796875 
Q 16.75 56 26.8125 56 
Q 31.78125 56 36.171875 55.265625 
Q 40.578125 54.546875 44.28125 53.078125 
z
" id="DejaVuSans-115"/>
       <path d="M 9.421875 54.6875 
L 18.40625 54.6875 
L 18.40625 0 
L 9.421875 0 
z
M 9.421875 75.984375 
L 18.40625 75.984375 
L 18.40625 64.59375 
L 9.421875 64.59375 
z
" id="DejaVuSans-105"/>
       <path d="M 18.3125 70.21875 
L 18.3125 54.6875 
L 36.8125 54.6875 
L 36.8125 47.703125 
L 18.3125 47.703125 
L 18.3125 18.015625 
Q 18.3125 11.328125 20.140625 9.421875 
Q 21.96875 7.515625 27.59375 7.515625 
L 36.8125 7.515625 
L 36.8125 0 
L 27.59375 0 
Q 17.1875 0 13.234375 3.875 
Q 9.28125 7.765625 9.28125 18.015625 
L 9.28125 47.703125 
L 2.6875 47.703125 
L 2.6875 54.6875 
L 9.28125 54.6875 
L 9.28125 70.21875 
z
" id="DejaVuSans-116"/>
       <path d="M 32.171875 -5.078125 
Q 28.375 -14.84375 24.75 -17.8125 
Q 21.140625 -20.796875 15.09375 -20.796875 
L 7.90625 -20.796875 
L 7.90625 -13.28125 
L 13.1875 -13.28125 
Q 16.890625 -13.28125 18.9375 -11.515625 
Q 21 -9.765625 23.484375 -3.21875 
L 25.09375 0.875 
L 2.984375 54.6875 
L 12.5 54.6875 
L 29.59375 11.921875 
L 46.6875 54.6875 
L 56.203125 54.6875 
z
" id="DejaVuSans-121"/>
      </defs>
      <use xlink:href="#DejaVuSans-68"/>
      <use x="77.001953" xlink:href="#DejaVuSans-101"/>
      <use x="138.525391" xlink:href="#DejaVuSans-110"/>
      <use x="201.904297" xlink:href="#DejaVuSans-115"/>
      <use x="254.003906" xlink:href="#DejaVuSans-105"/>
      <use x="281.787109" xlink:href="#DejaVuSans-116"/>
      <use x="320.996094" xlink:href="#DejaVuSans-121"/>
     </g>
    </g>
   </g>
   <g id="line2d_13">
    <path clip-path="url(#pc42d58ba3c)" d="M 69.218182 251.999756 
L 104.255037 251.888581 
L 114.918428 251.627147 
L 123.753808 251.188194 
L 133.807862 250.446242 
L 148.127273 249.386724 
L 155.134644 249.113395 
L 162.142015 249.070718 
L 170.672727 249.264114 
L 209.974939 250.673468 
L 235.567076 251.69718 
L 248.058477 251.898671 
L 263.291892 251.911624 
L 284.618673 251.680836 
L 300.766093 251.601632 
L 318.132187 251.780777 
L 341.591646 251.975319 
L 373.581818 251.999902 
L 373.581818 251.999902 
" style="fill:none;stroke:#1f77b4;stroke-linecap:round;stroke-width:1.5;"/>
   </g>
   <g id="patch_3">
    <path d="M 54 252 
L 54 34.56 
" style="fill:none;stroke:#cccccc;stroke-linecap:square;stroke-linejoin:miter;stroke-width:0.8;"/>
   </g>
   <g id="patch_4">
    <path d="M 388.8 252 
L 388.8 34.56 
" style="fill:none;stroke:#cccccc;stroke-linecap:square;stroke-linejoin:miter;stroke-width:0.8;"/>
   </g>
   <g id="patch_5">
    <path d="M 54 252 
L 388.8 252 
" style="fill:none;stroke:#cccccc;stroke-linecap:square;stroke-linejoin:miter;stroke-width:0.8;"/>
   </g>
   <g id="patch_6">
    <path d="M 54 34.56 
L 388.8 34.56 
" style="fill:none;stroke:#cccccc;stroke-linecap:square;stroke-linejoin:miter;stroke-width:0.8;"/>
   </g>
   <g id="text_15">
    <!-- Omaheke: Distribution of Bread Consumption (g/c/d) -->
    <g style="fill:#262626;" transform="translate(54 28.56)scale(0.12 -0.12)">
     <defs>
      <path d="M 3.90625 31.5 
Q 3.90625 44.96875 14.0625 54.578125 
Q 24.21875 64.203125 38.484375 64.203125 
Q 52.390625 64.203125 62.453125 54.515625 
Q 72.515625 44.828125 72.515625 31.5 
Q 72.515625 17.390625 62.578125 7.640625 
Q 52.640625 -2.09375 38.1875 -2.09375 
Q 23.921875 -2.09375 13.90625 7.71875 
Q 3.90625 17.53125 3.90625 31.5 
z
M 63.484375 31.109375 
Q 63.484375 41.40625 56.0625 48.453125 
Q 48.640625 55.515625 37.796875 55.515625 
Q 27.484375 55.515625 20.140625 48.328125 
Q 12.796875 41.15625 12.796875 31.109375 
Q 12.796875 20.90625 20.328125 13.84375 
Q 27.875 6.78125 38.8125 6.78125 
Q 48.875 6.78125 56.171875 13.984375 
Q 63.484375 21.1875 63.484375 31.109375 
z
" id="TwCenMT-Regular-79"/>
      <path d="M 4.890625 0 
L 4.890625 40.28125 
L 13.28125 40.28125 
L 13.28125 34.078125 
Q 16.265625 37.890625 18.96875 39.640625 
Q 21.6875 41.40625 25.203125 41.40625 
Q 29.78125 41.40625 32.390625 39.40625 
Q 35.015625 37.40625 36.8125 33.015625 
Q 39.984375 37.40625 42.9375 39.40625 
Q 45.90625 41.40625 49.8125 41.40625 
Q 54.59375 41.40625 58.0625 37.8125 
Q 61.53125 34.234375 61.53125 29.296875 
L 61.53125 0 
L 53.078125 0 
L 53.078125 27.09375 
Q 53.078125 33.796875 46.484375 33.796875 
Q 42.71875 33.796875 40.109375 30.375 
Q 37.5 26.953125 37.5 21.921875 
L 37.5 0 
L 29 0 
L 29 25.984375 
Q 29 33.890625 22.515625 33.890625 
Q 18.65625 33.890625 15.96875 30.65625 
Q 13.28125 27.4375 13.28125 22.703125 
L 13.28125 0 
z
" id="TwCenMT-Regular-109"/>
      <path d="M 39.59375 40.28125 
L 48.09375 40.28125 
L 48.09375 0 
L 39.59375 0 
L 39.59375 8.015625 
Q 33.40625 -1.125 24.21875 -1.125 
Q 16.265625 -1.125 10.625 5.125 
Q 4.984375 11.375 4.984375 20.3125 
Q 4.984375 28.765625 10.671875 35.078125 
Q 16.359375 41.40625 24.03125 41.40625 
Q 28.765625 41.40625 33 38.8125 
Q 37.25 36.234375 39.59375 32.078125 
z
M 40.71875 20.015625 
Q 40.71875 25.53125 36.765625 29.46875 
Q 32.8125 33.40625 27.296875 33.40625 
Q 21.921875 33.40625 17.921875 29.5 
Q 13.921875 25.59375 13.921875 20.3125 
Q 13.921875 14.59375 17.828125 10.59375 
Q 21.734375 6.59375 27.296875 6.59375 
Q 32.8125 6.59375 36.765625 10.5625 
Q 40.71875 14.546875 40.71875 20.015625 
z
" id="TwCenMT-Regular-97"/>
      <path d="M 3.8125 63.375 
L 12.3125 63.375 
L 12.3125 33.6875 
Q 15.828125 37.75 18.875 39.578125 
Q 21.921875 41.40625 26.3125 41.40625 
Q 31.453125 41.40625 35.1875 37.46875 
Q 38.921875 33.546875 38.921875 28.078125 
L 38.921875 0 
L 30.421875 0 
L 30.421875 25.6875 
Q 30.421875 29.5 28.484375 31.78125 
Q 26.5625 34.078125 23.390625 34.078125 
Q 18.796875 34.078125 15.546875 30.609375 
Q 12.3125 27.15625 12.3125 22.21875 
L 12.3125 0 
L 3.8125 0 
z
" id="TwCenMT-Regular-104"/>
      <path d="M 45.90625 18.5 
L 11.53125 18.5 
Q 12.640625 12.3125 16.625 9.453125 
Q 20.609375 6.59375 25.296875 6.59375 
Q 32.515625 6.59375 37.40625 12.59375 
L 43.609375 7.90625 
Q 36.625 -1.125 24.90625 -1.125 
Q 15.921875 -1.125 9.859375 5.03125 
Q 3.8125 11.1875 3.8125 20.3125 
Q 3.8125 28.859375 9.9375 35.125 
Q 16.0625 41.40625 24.90625 41.40625 
Q 33.59375 41.40625 39.796875 35.03125 
Q 46 28.65625 45.90625 18.5 
z
M 12.40625 25.296875 
L 37.015625 25.296875 
Q 32.90625 33.59375 24.90625 33.59375 
Q 16.15625 33.59375 12.40625 25.296875 
z
" id="TwCenMT-Regular-101"/>
      <path d="M 5.171875 63.375 
L 13.625 63.375 
L 13.625 22.609375 
L 30.328125 40.28125 
L 41.3125 40.28125 
L 23.875 21.6875 
L 41.5 0 
L 31 0 
L 13.625 21.296875 
L 13.625 0 
L 5.171875 0 
z
" id="TwCenMT-Regular-107"/>
      <path d="M 4.203125 27.296875 
Q 4.203125 30.078125 6.125 31.984375 
Q 8.0625 33.890625 10.796875 33.890625 
Q 13.53125 33.890625 15.453125 31.953125 
Q 17.390625 30.03125 17.390625 27.296875 
Q 17.390625 24.5625 15.484375 22.625 
Q 13.578125 20.703125 10.796875 20.703125 
Q 8.0625 20.703125 6.125 22.625 
Q 4.203125 24.5625 4.203125 27.296875 
z
M 4.203125 5.8125 
Q 4.203125 8.59375 6.125 10.546875 
Q 8.0625 12.5 10.796875 12.5 
Q 13.484375 12.5 15.4375 10.515625 
Q 17.390625 8.546875 17.390625 5.8125 
Q 17.390625 3.125 15.4375 1.171875 
Q 13.484375 -0.78125 10.796875 -0.78125 
Q 8.0625 -0.78125 6.125 1.140625 
Q 4.203125 3.078125 4.203125 5.8125 
z
" id="TwCenMT-Regular-58"/>
      <path id="TwCenMT-Regular-32"/>
      <path d="M 6.59375 62.203125 
L 21.6875 62.203125 
Q 39.59375 62.203125 48.328125 52.734375 
Q 57.078125 43.265625 57.078125 31.109375 
Q 57.078125 18.84375 48.046875 9.421875 
Q 39.015625 0 21.78125 0 
L 6.59375 0 
z
M 15.09375 53.90625 
L 15.09375 8.40625 
L 15.578125 8.40625 
Q 25.046875 8.40625 29.828125 9.25 
Q 34.625 10.109375 38.921875 12.984375 
Q 43.21875 15.875 45.75 20.625 
Q 48.296875 25.390625 48.296875 31.109375 
Q 48.296875 38.28125 44.234375 44.09375 
Q 40.1875 49.90625 34.546875 51.90625 
Q 28.90625 53.90625 19.390625 53.90625 
z
" id="TwCenMT-Regular-68"/>
      <path d="M 4.109375 53.515625 
Q 4.109375 56.15625 6.0625 58.078125 
Q 8.015625 60.015625 10.6875 60.015625 
Q 13.328125 60.015625 15.25 58.078125 
Q 17.1875 56.15625 17.1875 53.515625 
Q 17.1875 50.828125 15.25 48.921875 
Q 13.328125 47.015625 10.6875 47.015625 
Q 8.015625 47.015625 6.0625 48.921875 
Q 4.109375 50.828125 4.109375 53.515625 
z
M 6.5 40.28125 
L 14.890625 40.28125 
L 14.890625 0 
L 6.5 0 
z
" id="TwCenMT-Regular-105"/>
      <path d="M 29.984375 35.5 
L 24.3125 30.515625 
Q 22.125 32.078125 20.5 32.875 
Q 18.890625 33.6875 16.703125 33.6875 
Q 11.53125 33.6875 11.53125 29.890625 
Q 11.53125 27.15625 18.09375 24.578125 
Q 24.65625 22.015625 27.53125 18.9375 
Q 30.421875 15.875 30.421875 11.53125 
Q 30.421875 6.453125 26.265625 2.65625 
Q 22.125 -1.125 16.5 -1.125 
Q 7.953125 -1.125 2.484375 6.78125 
L 9.1875 10.015625 
Q 12.703125 6.59375 16.5 6.59375 
Q 19.140625 6.59375 21.109375 8.03125 
Q 23.09375 9.46875 23.09375 11.375 
Q 23.09375 14.75 16.15625 17.4375 
Q 9.234375 20.125 6.5625 22.875 
Q 3.90625 25.640625 3.90625 29.6875 
Q 3.90625 34.71875 7.6875 38.0625 
Q 11.46875 41.40625 17.1875 41.40625 
Q 22.90625 41.40625 29.984375 35.5 
z
" id="TwCenMT-Regular-115"/>
      <path d="M 8.40625 52 
L 16.890625 52 
L 16.890625 40.28125 
L 25.296875 40.28125 
L 25.296875 32.515625 
L 16.890625 32.515625 
L 16.890625 0 
L 8.40625 0 
L 8.40625 32.515625 
L 1.703125 32.515625 
L 1.703125 40.375 
L 8.40625 40.375 
z
" id="TwCenMT-Regular-116"/>
      <path d="M 15.09375 40.28125 
L 15.09375 31.984375 
L 15.09375 31.984375 
Q 17.921875 36.96875 20.625 39.1875 
Q 23.34375 41.40625 27.6875 41.40625 
Q 28.90625 41.40625 31.203125 40.828125 
L 28.609375 32.328125 
Q 26.171875 32.8125 25.390625 32.8125 
Q 21.09375 32.8125 18.1875 29.8125 
Q 15.28125 26.8125 15.28125 22.3125 
L 15.28125 0 
L 6.78125 0 
L 6.78125 40.28125 
z
" id="TwCenMT-Regular-114"/>
      <path d="M 6.984375 63.375 
L 15.375 63.375 
L 15.375 32.328125 
Q 20.796875 41.40625 30.90625 41.40625 
Q 38.71875 41.40625 44.453125 35.15625 
Q 50.203125 28.90625 50.203125 20.3125 
Q 50.203125 11.71875 44.5625 5.296875 
Q 38.921875 -1.125 31.390625 -1.125 
Q 26.5625 -1.125 22.21875 1.453125 
Q 17.875 4.046875 15.375 8.5 
L 15.375 0 
L 6.984375 0 
z
M 41.21875 20.3125 
Q 41.21875 25.828125 37.25 29.75 
Q 33.296875 33.6875 27.6875 33.6875 
Q 22.265625 33.6875 18.28125 29.703125 
Q 14.3125 25.734375 14.3125 20.3125 
Q 14.3125 14.65625 18.28125 10.765625 
Q 22.265625 6.890625 28.078125 6.890625 
Q 33.453125 6.890625 37.328125 10.84375 
Q 41.21875 14.796875 41.21875 20.3125 
z
" id="TwCenMT-Regular-98"/>
      <path d="M 4.203125 40.28125 
L 12.703125 40.28125 
L 12.703125 17.578125 
Q 12.703125 7.078125 21.921875 7.078125 
Q 26.03125 7.078125 28.421875 9.890625 
Q 30.8125 12.703125 30.8125 17.578125 
L 30.8125 40.28125 
L 39.203125 40.28125 
L 39.203125 16.21875 
Q 39.203125 8.640625 34.265625 3.75 
Q 29.34375 -1.125 21.6875 -1.125 
Q 13.875 -1.125 9.03125 3.75 
Q 4.203125 8.640625 4.203125 16.5 
z
" id="TwCenMT-Regular-117"/>
      <path d="M 3.421875 20.3125 
Q 3.421875 28.5625 9.9375 34.984375 
Q 16.453125 41.40625 24.90625 41.40625 
Q 33.59375 41.40625 40.078125 35.078125 
Q 46.578125 28.765625 46.578125 20.3125 
Q 46.578125 11.8125 40.203125 5.34375 
Q 33.84375 -1.125 25.484375 -1.125 
Q 16.546875 -1.125 9.984375 5.265625 
Q 3.421875 11.671875 3.421875 20.3125 
z
M 38.375 20.3125 
Q 38.375 25.4375 34.46875 29.21875 
Q 30.5625 33.015625 25.203125 33.015625 
Q 19.671875 33.015625 15.6875 29.171875 
Q 11.71875 25.34375 11.71875 20.015625 
Q 11.71875 14.9375 15.75 11.125 
Q 19.78125 7.328125 25.203125 7.328125 
Q 30.46875 7.328125 34.421875 11.234375 
Q 38.375 15.140625 38.375 20.3125 
z
" id="TwCenMT-Regular-111"/>
      <path d="M 4.109375 0 
L 4.109375 40.28125 
L 12.40625 40.28125 
L 12.40625 33.59375 
Q 16.0625 37.640625 19.03125 39.515625 
Q 22.015625 41.40625 25.6875 41.40625 
Q 31.15625 41.40625 35.03125 37.796875 
Q 38.921875 34.1875 38.921875 29.109375 
L 38.921875 0 
L 30.421875 0 
L 30.421875 26.609375 
Q 30.421875 29.890625 28.296875 32.03125 
Q 26.171875 34.1875 22.90625 34.1875 
Q 18.65625 34.1875 15.578125 30.59375 
Q 12.5 27 12.5 21.921875 
L 12.5 0 
z
" id="TwCenMT-Regular-110"/>
      <path d="M 29.984375 62.796875 
L 29.984375 54.203125 
Q 26.265625 56.6875 23.578125 56.6875 
Q 21.34375 56.6875 20.0625 55.03125 
Q 18.796875 53.375 18.796875 50.390625 
L 18.796875 40.28125 
L 29.984375 40.28125 
L 29.984375 32.515625 
L 18.796875 32.515625 
L 18.796875 0 
L 10.296875 0 
L 10.296875 32.515625 
L 2.875 32.515625 
L 2.875 40.28125 
L 10.296875 40.28125 
L 10.296875 49.8125 
Q 10.296875 56.6875 13.84375 60.78125 
Q 17.390625 64.890625 23.296875 64.890625 
Q 26.21875 64.890625 29.984375 62.796875 
z
" id="TwCenMT-Regular-102"/>
      <path d="M 7.71875 62.203125 
L 17.578125 62.203125 
Q 27.296875 62.203125 33.4375 57.984375 
Q 39.59375 53.765625 39.59375 47.3125 
Q 39.59375 39.453125 30.515625 34.1875 
Q 44.578125 29.5 44.578125 17.921875 
Q 44.578125 9.859375 37.328125 4.921875 
Q 30.078125 0 17.921875 0 
L 7.71875 0 
z
M 16.109375 54.6875 
L 16.109375 36.28125 
Q 23.140625 36.375 26.875 38.953125 
Q 30.609375 41.546875 30.609375 46.09375 
Q 30.609375 50.046875 27.234375 52.40625 
Q 23.875 54.78125 18.21875 54.78125 
Q 17 54.78125 16.109375 54.6875 
z
M 16.109375 28.90625 
L 16.109375 7.625 
L 16.796875 7.625 
Q 27.78125 7.625 31.78125 11.140625 
Q 35.796875 14.65625 35.796875 18.3125 
Q 35.796875 23.140625 31.296875 26.015625 
Q 26.8125 28.90625 19 28.90625 
z
" id="TwCenMT-Regular-66"/>
      <path d="M 39.40625 63.375 
L 47.796875 63.375 
L 47.796875 0 
L 39.5 0 
L 39.5 8.40625 
Q 33.5 -1.125 23.78125 -1.125 
Q 15.921875 -1.125 10.296875 5.171875 
Q 4.6875 11.46875 4.6875 20.3125 
Q 4.6875 28.953125 10.390625 35.171875 
Q 16.109375 41.40625 24.03125 41.40625 
Q 28.765625 41.40625 32.859375 38.765625 
Q 36.96875 36.140625 39.40625 31.890625 
z
M 40.375 20.21875 
Q 40.375 25.640625 36.421875 29.609375 
Q 32.46875 33.59375 27 33.59375 
Q 21.34375 33.59375 17.40625 29.703125 
Q 13.484375 25.828125 13.484375 20.21875 
Q 13.484375 14.84375 17.484375 10.8125 
Q 21.484375 6.78125 26.8125 6.78125 
Q 32.46875 6.78125 36.421875 10.6875 
Q 40.375 14.59375 40.375 20.21875 
z
" id="TwCenMT-Regular-100"/>
      <path d="M 56.78125 60.109375 
L 56.78125 50.484375 
Q 46.734375 55.421875 38.28125 55.421875 
Q 27.4375 55.421875 20.015625 48.40625 
Q 12.59375 41.40625 12.59375 31.203125 
Q 12.59375 20.796875 20.1875 13.84375 
Q 27.78125 6.890625 39.203125 6.890625 
Q 47.515625 6.890625 56.78125 12.109375 
L 56.78125 2.390625 
Q 48.34375 -2.09375 38.484375 -2.09375 
Q 24.03125 -2.09375 13.765625 7.6875 
Q 3.515625 17.484375 3.515625 31.296875 
Q 3.515625 44.875 13.59375 54.53125 
Q 23.6875 64.203125 37.890625 64.203125 
Q 47.015625 64.203125 56.78125 60.109375 
z
" id="TwCenMT-Regular-67"/>
      <path d="M 15.1875 40.28125 
L 15.1875 32.171875 
L 15.1875 32.171875 
Q 21.296875 41.40625 30.8125 41.40625 
Q 38.625 41.40625 44.265625 35.171875 
Q 49.90625 28.953125 49.90625 20.3125 
Q 49.90625 11.578125 44.1875 5.21875 
Q 38.484375 -1.125 30.71875 -1.125 
Q 26.21875 -1.125 22.09375 1.21875 
Q 17.96875 3.5625 15.28125 8.015625 
L 15.28125 8.015625 
L 15.28125 -18.890625 
L 6.78125 -18.890625 
L 6.78125 40.28125 
z
M 41.015625 20.3125 
Q 41.015625 25.640625 37.015625 29.609375 
Q 33.015625 33.59375 27.59375 33.59375 
Q 22.078125 33.59375 18.046875 29.640625 
Q 14.015625 25.6875 14.015625 20.3125 
Q 14.015625 14.796875 17.984375 10.734375 
Q 21.96875 6.6875 27.390625 6.6875 
Q 33.015625 6.6875 37.015625 10.6875 
Q 41.015625 14.703125 41.015625 20.3125 
z
" id="TwCenMT-Regular-112"/>
      <path d="M 15.28125 64.203125 
L 22.125 61.078125 
Q 16.75 50.6875 14.765625 42.625 
Q 12.796875 34.578125 12.796875 24.3125 
Q 12.796875 12.546875 14.703125 3.921875 
Q 16.609375 -4.6875 21.6875 -15.375 
L 15.28125 -19 
Q 5.328125 0.203125 5.328125 22.125 
Q 5.328125 33.640625 7.421875 43.328125 
Q 9.515625 53.03125 15.28125 64.203125 
z
" id="TwCenMT-Regular-40"/>
      <path d="M 39.203125 40.28125 
L 47.515625 40.28125 
L 47.515625 1.609375 
Q 47.515625 -6.9375 41.625 -12.90625 
Q 35.75 -18.890625 27.390625 -18.890625 
Q 21.046875 -18.890625 15.71875 -15.453125 
Q 10.40625 -12.015625 7.90625 -4.984375 
L 16.703125 -4.984375 
Q 20.65625 -11.53125 27.6875 -11.53125 
Q 32.46875 -11.53125 35.828125 -8.078125 
Q 39.203125 -4.640625 39.203125 0.203125 
L 39.203125 7.8125 
Q 33.0625 -1.125 23.6875 -1.125 
Q 15.96875 -1.125 10.234375 5.25 
Q 4.5 11.625 4.5 20.3125 
Q 4.5 29 10.078125 35.203125 
Q 15.671875 41.40625 23.390625 41.40625 
Q 33.34375 41.40625 39.203125 31.78125 
z
M 40.375 20.21875 
Q 40.375 25.875 36.4375 29.6875 
Q 32.515625 33.5 26.703125 33.5 
Q 21.390625 33.5 17.328125 29.546875 
Q 13.28125 25.59375 13.28125 20.40625 
Q 13.28125 14.796875 17.28125 10.734375 
Q 21.296875 6.6875 26.8125 6.6875 
Q 32.421875 6.6875 36.390625 10.640625 
Q 40.375 14.59375 40.375 20.21875 
z
" id="TwCenMT-Regular-103"/>
      <path d="M 43.3125 72.515625 
L 48.875 72.515625 
L 8.40625 -22.015625 
L 2.59375 -22.015625 
z
" id="TwCenMT-Regular-47"/>
      <path d="M 35.890625 12.3125 
L 35.890625 2.59375 
Q 29.390625 -1.125 23.296875 -1.125 
Q 14.9375 -1.125 8.65625 5.140625 
Q 2.390625 11.421875 2.390625 19.671875 
Q 2.390625 29.046875 8.640625 35.21875 
Q 14.890625 41.40625 24.3125 41.40625 
Q 29.9375 41.40625 35.890625 38.484375 
L 35.890625 29 
Q 29.5 33.109375 23.78125 33.109375 
Q 18.5 33.109375 14.546875 29.390625 
Q 10.59375 25.6875 10.59375 20.703125 
Q 10.59375 15.09375 14.296875 11.25 
Q 18.015625 7.421875 23.390625 7.421875 
Q 28.859375 7.421875 35.890625 12.3125 
z
" id="TwCenMT-Regular-99"/>
      <path d="M 4.296875 61.078125 
L 10.984375 64.203125 
Q 21.390625 46.484375 21.390625 22.21875 
Q 21.390625 0.6875 11.53125 -19.28125 
L 4.78125 -15.71875 
Q 10.890625 -1.8125 12.34375 5.703125 
Q 13.8125 13.234375 13.8125 23 
Q 13.8125 34.03125 11.8125 42.59375 
Q 9.8125 51.171875 4.296875 61.078125 
z
" id="TwCenMT-Regular-41"/>
     </defs>
     <use xlink:href="#TwCenMT-Regular-79"/>
     <use x="77.099609" xlink:href="#TwCenMT-Regular-109"/>
     <use x="143.798828" xlink:href="#TwCenMT-Regular-97"/>
     <use x="198.974609" xlink:href="#TwCenMT-Regular-104"/>
     <use x="242.773438" xlink:href="#TwCenMT-Regular-101"/>
     <use x="292.773438" xlink:href="#TwCenMT-Regular-107"/>
     <use x="334.572266" xlink:href="#TwCenMT-Regular-101"/>
     <use x="384.572266" xlink:href="#TwCenMT-Regular-58"/>
     <use x="406.496094" xlink:href="#TwCenMT-Regular-32"/>
     <use x="434.083984" xlink:href="#TwCenMT-Regular-68"/>
     <use x="494.484375" xlink:href="#TwCenMT-Regular-105"/>
     <use x="516.408203" xlink:href="#TwCenMT-Regular-115"/>
     <use x="549.708984" xlink:href="#TwCenMT-Regular-116"/>
     <use x="576.808594" xlink:href="#TwCenMT-Regular-114"/>
     <use x="610.109375" xlink:href="#TwCenMT-Regular-105"/>
     <use x="632.033203" xlink:href="#TwCenMT-Regular-98"/>
     <use x="687.208984" xlink:href="#TwCenMT-Regular-117"/>
     <use x="731.007812" xlink:href="#TwCenMT-Regular-116"/>
     <use x="758.107422" xlink:href="#TwCenMT-Regular-105"/>
     <use x="780.03125" xlink:href="#TwCenMT-Regular-111"/>
     <use x="830.03125" xlink:href="#TwCenMT-Regular-110"/>
     <use x="873.830078" xlink:href="#TwCenMT-Regular-32"/>
     <use x="901.417969" xlink:href="#TwCenMT-Regular-111"/>
     <use x="951.417969" xlink:href="#TwCenMT-Regular-102"/>
     <use x="987.71875" xlink:href="#TwCenMT-Regular-32"/>
     <use x="1015.306641" xlink:href="#TwCenMT-Regular-66"/>
     <use x="1065.306641" xlink:href="#TwCenMT-Regular-114"/>
     <use x="1098.607422" xlink:href="#TwCenMT-Regular-101"/>
     <use x="1148.607422" xlink:href="#TwCenMT-Regular-97"/>
     <use x="1203.783203" xlink:href="#TwCenMT-Regular-100"/>
     <use x="1258.958984" xlink:href="#TwCenMT-Regular-32"/>
     <use x="1286.546875" xlink:href="#TwCenMT-Regular-67"/>
     <use x="1346.947266" xlink:href="#TwCenMT-Regular-111"/>
     <use x="1396.947266" xlink:href="#TwCenMT-Regular-110"/>
     <use x="1440.746094" xlink:href="#TwCenMT-Regular-115"/>
     <use x="1474.046875" xlink:href="#TwCenMT-Regular-117"/>
     <use x="1517.845703" xlink:href="#TwCenMT-Regular-109"/>
     <use x="1584.544922" xlink:href="#TwCenMT-Regular-112"/>
     <use x="1639.720703" xlink:href="#TwCenMT-Regular-116"/>
     <use x="1666.820312" xlink:href="#TwCenMT-Regular-105"/>
     <use x="1688.744141" xlink:href="#TwCenMT-Regular-111"/>
     <use x="1738.744141" xlink:href="#TwCenMT-Regular-110"/>
     <use x="1782.542969" xlink:href="#TwCenMT-Regular-32"/>
     <use x="1810.130859" xlink:href="#TwCenMT-Regular-40"/>
     <use x="1837.230469" xlink:href="#TwCenMT-Regular-103"/>
     <use x="1892.40625" xlink:href="#TwCenMT-Regular-47"/>
     <use x="1942.40625" xlink:href="#TwCenMT-Regular-99"/>
     <use x="1980.882812" xlink:href="#TwCenMT-Regular-47"/>
     <use x="2030.882812" xlink:href="#TwCenMT-Regular-100"/>
     <use x="2086.058594" xlink:href="#TwCenMT-Regular-41"/>
    </g>
   </g>
   <g id="legend_1">
    <g id="line2d_14">
     <path d="M 60.3 43.505781 
L 74.3 43.505781 
" style="fill:none;stroke:#1f77b4;stroke-linecap:round;stroke-width:1.5;"/>
    </g>
    <g id="line2d_15"/>
    <g id="text_16">
     <!-- Bread Consumption (g/c/d) -->
     <g style="fill:#262626;" transform="translate(79.9 45.955781)scale(0.07 -0.07)">
      <defs>
       <path d="M 7.328125 0 
L 7.328125 71.578125 
L 34.1875 71.578125 
Q 42.390625 71.578125 47.34375 69.40625 
Q 52.296875 67.234375 55.09375 62.71875 
Q 57.90625 58.203125 57.90625 53.265625 
Q 57.90625 48.6875 55.421875 44.625 
Q 52.9375 40.578125 47.90625 38.09375 
Q 54.390625 36.1875 57.875 31.59375 
Q 61.375 27 61.375 20.75 
Q 61.375 15.71875 59.25 11.390625 
Q 57.125 7.078125 54 4.734375 
Q 50.875 2.390625 46.15625 1.1875 
Q 41.453125 0 34.625 0 
z
M 16.796875 41.5 
L 32.28125 41.5 
Q 38.578125 41.5 41.3125 42.328125 
Q 44.921875 43.40625 46.75 45.890625 
Q 48.578125 48.390625 48.578125 52.15625 
Q 48.578125 55.71875 46.875 58.421875 
Q 45.171875 61.140625 41.984375 62.140625 
Q 38.8125 63.140625 31.109375 63.140625 
L 16.796875 63.140625 
z
M 16.796875 8.453125 
L 34.625 8.453125 
Q 39.203125 8.453125 41.0625 8.796875 
Q 44.34375 9.375 46.53125 10.734375 
Q 48.734375 12.109375 50.140625 14.71875 
Q 51.5625 17.328125 51.5625 20.75 
Q 51.5625 24.75 49.515625 27.703125 
Q 47.46875 30.671875 43.828125 31.859375 
Q 40.1875 33.0625 33.34375 33.0625 
L 16.796875 33.0625 
z
" id="ArialMT-66"/>
       <path d="M 6.5 0 
L 6.5 51.859375 
L 14.40625 51.859375 
L 14.40625 44 
Q 17.4375 49.515625 20 51.265625 
Q 22.5625 53.03125 25.640625 53.03125 
Q 30.078125 53.03125 34.671875 50.203125 
L 31.640625 42.046875 
Q 28.421875 43.953125 25.203125 43.953125 
Q 22.3125 43.953125 20.015625 42.21875 
Q 17.71875 40.484375 16.75 37.40625 
Q 15.28125 32.71875 15.28125 27.15625 
L 15.28125 0 
z
" id="ArialMT-114"/>
       <path d="M 42.09375 16.703125 
L 51.171875 15.578125 
Q 49.03125 7.625 43.21875 3.21875 
Q 37.40625 -1.171875 28.375 -1.171875 
Q 17 -1.171875 10.328125 5.828125 
Q 3.65625 12.84375 3.65625 25.484375 
Q 3.65625 38.578125 10.390625 45.796875 
Q 17.140625 53.03125 27.875 53.03125 
Q 38.28125 53.03125 44.875 45.953125 
Q 51.46875 38.875 51.46875 26.03125 
Q 51.46875 25.25 51.421875 23.6875 
L 12.75 23.6875 
Q 13.234375 15.140625 17.578125 10.59375 
Q 21.921875 6.0625 28.421875 6.0625 
Q 33.25 6.0625 36.671875 8.59375 
Q 40.09375 11.140625 42.09375 16.703125 
z
M 13.234375 30.90625 
L 42.1875 30.90625 
Q 41.609375 37.453125 38.875 40.71875 
Q 34.671875 45.796875 27.984375 45.796875 
Q 21.921875 45.796875 17.796875 41.75 
Q 13.671875 37.703125 13.234375 30.90625 
z
" id="ArialMT-101"/>
       <path d="M 40.4375 6.390625 
Q 35.546875 2.25 31.03125 0.53125 
Q 26.515625 -1.171875 21.34375 -1.171875 
Q 12.796875 -1.171875 8.203125 3 
Q 3.609375 7.171875 3.609375 13.671875 
Q 3.609375 17.484375 5.34375 20.625 
Q 7.078125 23.78125 9.890625 25.6875 
Q 12.703125 27.59375 16.21875 28.5625 
Q 18.796875 29.25 24.03125 29.890625 
Q 34.671875 31.15625 39.703125 32.90625 
Q 39.75 34.71875 39.75 35.203125 
Q 39.75 40.578125 37.25 42.78125 
Q 33.890625 45.75 27.25 45.75 
Q 21.046875 45.75 18.09375 43.578125 
Q 15.140625 41.40625 13.71875 35.890625 
L 5.125 37.0625 
Q 6.296875 42.578125 8.984375 45.96875 
Q 11.671875 49.359375 16.75 51.1875 
Q 21.828125 53.03125 28.515625 53.03125 
Q 35.15625 53.03125 39.296875 51.46875 
Q 43.453125 49.90625 45.40625 47.53125 
Q 47.359375 45.171875 48.140625 41.546875 
Q 48.578125 39.3125 48.578125 33.453125 
L 48.578125 21.734375 
Q 48.578125 9.46875 49.140625 6.21875 
Q 49.703125 2.984375 51.375 0 
L 42.1875 0 
Q 40.828125 2.734375 40.4375 6.390625 
z
M 39.703125 26.03125 
Q 34.90625 24.078125 25.34375 22.703125 
Q 19.921875 21.921875 17.671875 20.9375 
Q 15.4375 19.96875 14.203125 18.09375 
Q 12.984375 16.21875 12.984375 13.921875 
Q 12.984375 10.40625 15.640625 8.0625 
Q 18.3125 5.71875 23.4375 5.71875 
Q 28.515625 5.71875 32.46875 7.9375 
Q 36.421875 10.15625 38.28125 14.015625 
Q 39.703125 17 39.703125 22.796875 
z
" id="ArialMT-97"/>
       <path d="M 40.234375 0 
L 40.234375 6.546875 
Q 35.296875 -1.171875 25.734375 -1.171875 
Q 19.53125 -1.171875 14.328125 2.25 
Q 9.125 5.671875 6.265625 11.796875 
Q 3.421875 17.921875 3.421875 25.875 
Q 3.421875 33.640625 6 39.96875 
Q 8.59375 46.296875 13.765625 49.65625 
Q 18.953125 53.03125 25.34375 53.03125 
Q 30.03125 53.03125 33.6875 51.046875 
Q 37.359375 49.078125 39.65625 45.90625 
L 39.65625 71.578125 
L 48.390625 71.578125 
L 48.390625 0 
z
M 12.453125 25.875 
Q 12.453125 15.921875 16.640625 10.984375 
Q 20.84375 6.0625 26.5625 6.0625 
Q 32.328125 6.0625 36.34375 10.765625 
Q 40.375 15.484375 40.375 25.140625 
Q 40.375 35.796875 36.265625 40.765625 
Q 32.171875 45.75 26.171875 45.75 
Q 20.3125 45.75 16.375 40.96875 
Q 12.453125 36.1875 12.453125 25.875 
z
" id="ArialMT-100"/>
       <path id="ArialMT-32"/>
       <path d="M 58.796875 25.09375 
L 68.265625 22.703125 
Q 65.28125 11.03125 57.546875 4.90625 
Q 49.8125 -1.21875 38.625 -1.21875 
Q 27.046875 -1.21875 19.796875 3.484375 
Q 12.546875 8.203125 8.765625 17.140625 
Q 4.984375 26.078125 4.984375 36.328125 
Q 4.984375 47.515625 9.25 55.828125 
Q 13.53125 64.15625 21.40625 68.46875 
Q 29.296875 72.796875 38.765625 72.796875 
Q 49.515625 72.796875 56.828125 67.328125 
Q 64.15625 61.859375 67.046875 51.953125 
L 57.71875 49.75 
Q 55.21875 57.5625 50.484375 61.125 
Q 45.75 64.703125 38.578125 64.703125 
Q 30.328125 64.703125 24.78125 60.734375 
Q 19.234375 56.78125 16.984375 50.109375 
Q 14.75 43.453125 14.75 36.375 
Q 14.75 27.25 17.40625 20.4375 
Q 20.0625 13.625 25.671875 10.25 
Q 31.296875 6.890625 37.84375 6.890625 
Q 45.796875 6.890625 51.3125 11.46875 
Q 56.84375 16.0625 58.796875 25.09375 
z
" id="ArialMT-67"/>
       <path d="M 3.328125 25.921875 
Q 3.328125 40.328125 11.328125 47.265625 
Q 18.015625 53.03125 27.640625 53.03125 
Q 38.328125 53.03125 45.109375 46.015625 
Q 51.90625 39.015625 51.90625 26.65625 
Q 51.90625 16.65625 48.90625 10.90625 
Q 45.90625 5.171875 40.15625 2 
Q 34.421875 -1.171875 27.640625 -1.171875 
Q 16.75 -1.171875 10.03125 5.8125 
Q 3.328125 12.796875 3.328125 25.921875 
z
M 12.359375 25.921875 
Q 12.359375 15.96875 16.703125 11.015625 
Q 21.046875 6.0625 27.640625 6.0625 
Q 34.1875 6.0625 38.53125 11.03125 
Q 42.875 16.015625 42.875 26.21875 
Q 42.875 35.84375 38.5 40.796875 
Q 34.125 45.75 27.640625 45.75 
Q 21.046875 45.75 16.703125 40.8125 
Q 12.359375 35.890625 12.359375 25.921875 
z
" id="ArialMT-111"/>
       <path d="M 6.59375 0 
L 6.59375 51.859375 
L 14.5 51.859375 
L 14.5 44.484375 
Q 20.21875 53.03125 31 53.03125 
Q 35.6875 53.03125 39.625 51.34375 
Q 43.5625 49.65625 45.515625 46.921875 
Q 47.46875 44.1875 48.25 40.4375 
Q 48.734375 37.984375 48.734375 31.890625 
L 48.734375 0 
L 39.9375 0 
L 39.9375 31.546875 
Q 39.9375 36.921875 38.90625 39.578125 
Q 37.890625 42.234375 35.28125 43.8125 
Q 32.671875 45.40625 29.15625 45.40625 
Q 23.53125 45.40625 19.453125 41.84375 
Q 15.375 38.28125 15.375 28.328125 
L 15.375 0 
z
" id="ArialMT-110"/>
       <path d="M 3.078125 15.484375 
L 11.765625 16.84375 
Q 12.5 11.625 15.84375 8.84375 
Q 19.1875 6.0625 25.203125 6.0625 
Q 31.25 6.0625 34.171875 8.515625 
Q 37.109375 10.984375 37.109375 14.3125 
Q 37.109375 17.28125 34.515625 19 
Q 32.71875 20.171875 25.53125 21.96875 
Q 15.875 24.421875 12.140625 26.203125 
Q 8.40625 27.984375 6.46875 31.125 
Q 4.546875 34.28125 4.546875 38.09375 
Q 4.546875 41.546875 6.125 44.5 
Q 7.71875 47.46875 10.453125 49.421875 
Q 12.5 50.921875 16.03125 51.96875 
Q 19.578125 53.03125 23.640625 53.03125 
Q 29.734375 53.03125 34.34375 51.265625 
Q 38.96875 49.515625 41.15625 46.5 
Q 43.359375 43.5 44.1875 38.484375 
L 35.59375 37.3125 
Q 35.015625 41.3125 32.203125 43.546875 
Q 29.390625 45.796875 24.265625 45.796875 
Q 18.21875 45.796875 15.625 43.796875 
Q 13.03125 41.796875 13.03125 39.109375 
Q 13.03125 37.40625 14.109375 36.03125 
Q 15.1875 34.625 17.484375 33.6875 
Q 18.796875 33.203125 25.25 31.453125 
Q 34.578125 28.953125 38.25 27.359375 
Q 41.9375 25.78125 44.03125 22.75 
Q 46.140625 19.734375 46.140625 15.234375 
Q 46.140625 10.84375 43.578125 6.953125 
Q 41.015625 3.078125 36.171875 0.953125 
Q 31.34375 -1.171875 25.25 -1.171875 
Q 15.140625 -1.171875 9.84375 3.03125 
Q 4.546875 7.234375 3.078125 15.484375 
z
" id="ArialMT-115"/>
       <path d="M 40.578125 0 
L 40.578125 7.625 
Q 34.515625 -1.171875 24.125 -1.171875 
Q 19.53125 -1.171875 15.546875 0.578125 
Q 11.578125 2.34375 9.640625 5 
Q 7.71875 7.671875 6.9375 11.53125 
Q 6.390625 14.109375 6.390625 19.734375 
L 6.390625 51.859375 
L 15.1875 51.859375 
L 15.1875 23.09375 
Q 15.1875 16.21875 15.71875 13.8125 
Q 16.546875 10.359375 19.234375 8.375 
Q 21.921875 6.390625 25.875 6.390625 
Q 29.828125 6.390625 33.296875 8.421875 
Q 36.765625 10.453125 38.203125 13.9375 
Q 39.65625 17.4375 39.65625 24.078125 
L 39.65625 51.859375 
L 48.4375 51.859375 
L 48.4375 0 
z
" id="ArialMT-117"/>
       <path d="M 6.59375 0 
L 6.59375 51.859375 
L 14.453125 51.859375 
L 14.453125 44.578125 
Q 16.890625 48.390625 20.9375 50.703125 
Q 25 53.03125 30.171875 53.03125 
Q 35.9375 53.03125 39.625 50.640625 
Q 43.3125 48.25 44.828125 43.953125 
Q 50.984375 53.03125 60.84375 53.03125 
Q 68.5625 53.03125 72.703125 48.75 
Q 76.859375 44.484375 76.859375 35.59375 
L 76.859375 0 
L 68.109375 0 
L 68.109375 32.671875 
Q 68.109375 37.9375 67.25 40.25 
Q 66.40625 42.578125 64.15625 43.984375 
Q 61.921875 45.40625 58.890625 45.40625 
Q 53.421875 45.40625 49.796875 41.765625 
Q 46.1875 38.140625 46.1875 30.125 
L 46.1875 0 
L 37.40625 0 
L 37.40625 33.6875 
Q 37.40625 39.546875 35.25 42.46875 
Q 33.109375 45.40625 28.21875 45.40625 
Q 24.515625 45.40625 21.359375 43.453125 
Q 18.21875 41.5 16.796875 37.734375 
Q 15.375 33.984375 15.375 26.90625 
L 15.375 0 
z
" id="ArialMT-109"/>
       <path d="M 6.59375 -19.875 
L 6.59375 51.859375 
L 14.59375 51.859375 
L 14.59375 45.125 
Q 17.4375 49.078125 21 51.046875 
Q 24.5625 53.03125 29.640625 53.03125 
Q 36.28125 53.03125 41.359375 49.609375 
Q 46.4375 46.1875 49.015625 39.953125 
Q 51.609375 33.734375 51.609375 26.3125 
Q 51.609375 18.359375 48.75 11.984375 
Q 45.90625 5.609375 40.453125 2.21875 
Q 35.015625 -1.171875 29 -1.171875 
Q 24.609375 -1.171875 21.109375 0.6875 
Q 17.625 2.546875 15.375 5.375 
L 15.375 -19.875 
z
M 14.546875 25.640625 
Q 14.546875 15.625 18.59375 10.84375 
Q 22.65625 6.0625 28.421875 6.0625 
Q 34.28125 6.0625 38.453125 11.015625 
Q 42.625 15.96875 42.625 26.375 
Q 42.625 36.28125 38.546875 41.203125 
Q 34.46875 46.140625 28.8125 46.140625 
Q 23.1875 46.140625 18.859375 40.890625 
Q 14.546875 35.640625 14.546875 25.640625 
z
" id="ArialMT-112"/>
       <path d="M 25.78125 7.859375 
L 27.046875 0.09375 
Q 23.34375 -0.6875 20.40625 -0.6875 
Q 15.625 -0.6875 12.984375 0.828125 
Q 10.359375 2.34375 9.28125 4.8125 
Q 8.203125 7.28125 8.203125 15.1875 
L 8.203125 45.015625 
L 1.765625 45.015625 
L 1.765625 51.859375 
L 8.203125 51.859375 
L 8.203125 64.703125 
L 16.9375 69.96875 
L 16.9375 51.859375 
L 25.78125 51.859375 
L 25.78125 45.015625 
L 16.9375 45.015625 
L 16.9375 14.703125 
Q 16.9375 10.9375 17.40625 9.859375 
Q 17.875 8.796875 18.921875 8.15625 
Q 19.96875 7.515625 21.921875 7.515625 
Q 23.390625 7.515625 25.78125 7.859375 
z
" id="ArialMT-116"/>
       <path d="M 6.640625 61.46875 
L 6.640625 71.578125 
L 15.4375 71.578125 
L 15.4375 61.46875 
z
M 6.640625 0 
L 6.640625 51.859375 
L 15.4375 51.859375 
L 15.4375 0 
z
" id="ArialMT-105"/>
       <path d="M 23.390625 -21.046875 
Q 16.109375 -11.859375 11.078125 0.4375 
Q 6.0625 12.75 6.0625 25.921875 
Q 6.0625 37.546875 9.8125 48.1875 
Q 14.203125 60.546875 23.390625 72.796875 
L 29.6875 72.796875 
Q 23.78125 62.640625 21.875 58.296875 
Q 18.890625 51.5625 17.1875 44.234375 
Q 15.09375 35.109375 15.09375 25.875 
Q 15.09375 2.390625 29.6875 -21.046875 
z
" id="ArialMT-40"/>
       <path d="M 4.984375 -4.296875 
L 13.53125 -5.5625 
Q 14.0625 -9.515625 16.5 -11.328125 
Q 19.78125 -13.765625 25.4375 -13.765625 
Q 31.546875 -13.765625 34.859375 -11.328125 
Q 38.1875 -8.890625 39.359375 -4.5 
Q 40.046875 -1.8125 39.984375 6.78125 
Q 34.234375 0 25.640625 0 
Q 14.9375 0 9.078125 7.71875 
Q 3.21875 15.4375 3.21875 26.21875 
Q 3.21875 33.640625 5.90625 39.90625 
Q 8.59375 46.1875 13.6875 49.609375 
Q 18.796875 53.03125 25.6875 53.03125 
Q 34.859375 53.03125 40.828125 45.609375 
L 40.828125 51.859375 
L 48.921875 51.859375 
L 48.921875 7.03125 
Q 48.921875 -5.078125 46.453125 -10.125 
Q 44 -15.1875 38.640625 -18.109375 
Q 33.296875 -21.046875 25.484375 -21.046875 
Q 16.21875 -21.046875 10.5 -16.875 
Q 4.78125 -12.703125 4.984375 -4.296875 
z
M 12.25 26.859375 
Q 12.25 16.65625 16.296875 11.96875 
Q 20.359375 7.28125 26.46875 7.28125 
Q 32.515625 7.28125 36.609375 11.9375 
Q 40.71875 16.609375 40.71875 26.5625 
Q 40.71875 36.078125 36.5 40.90625 
Q 32.28125 45.75 26.3125 45.75 
Q 20.453125 45.75 16.34375 40.984375 
Q 12.25 36.234375 12.25 26.859375 
z
" id="ArialMT-103"/>
       <path d="M 0 -1.21875 
L 20.75 72.796875 
L 27.78125 72.796875 
L 7.078125 -1.21875 
z
" id="ArialMT-47"/>
       <path d="M 40.4375 19 
L 49.078125 17.875 
Q 47.65625 8.9375 41.8125 3.875 
Q 35.984375 -1.171875 27.484375 -1.171875 
Q 16.84375 -1.171875 10.375 5.78125 
Q 3.90625 12.75 3.90625 25.734375 
Q 3.90625 34.125 6.6875 40.421875 
Q 9.46875 46.734375 15.15625 49.875 
Q 20.84375 53.03125 27.546875 53.03125 
Q 35.984375 53.03125 41.359375 48.75 
Q 46.734375 44.484375 48.25 36.625 
L 39.703125 35.296875 
Q 38.484375 40.53125 35.375 43.15625 
Q 32.28125 45.796875 27.875 45.796875 
Q 21.234375 45.796875 17.078125 41.03125 
Q 12.9375 36.28125 12.9375 25.984375 
Q 12.9375 15.53125 16.9375 10.796875 
Q 20.953125 6.0625 27.390625 6.0625 
Q 32.5625 6.0625 36.03125 9.234375 
Q 39.5 12.40625 40.4375 19 
z
" id="ArialMT-99"/>
       <path d="M 12.359375 -21.046875 
L 6.0625 -21.046875 
Q 20.65625 2.390625 20.65625 25.875 
Q 20.65625 35.0625 18.5625 44.09375 
Q 16.890625 51.421875 13.921875 58.15625 
Q 12.015625 62.546875 6.0625 72.796875 
L 12.359375 72.796875 
Q 21.53125 60.546875 25.921875 48.1875 
Q 29.6875 37.546875 29.6875 25.921875 
Q 29.6875 12.75 24.625 0.4375 
Q 19.578125 -11.859375 12.359375 -21.046875 
z
" id="ArialMT-41"/>
      </defs>
      <use xlink:href="#ArialMT-66"/>
      <use x="66.699219" xlink:href="#ArialMT-114"/>
      <use x="100" xlink:href="#ArialMT-101"/>
      <use x="155.615234" xlink:href="#ArialMT-97"/>
      <use x="211.230469" xlink:href="#ArialMT-100"/>
      <use x="266.845703" xlink:href="#ArialMT-32"/>
      <use x="294.628906" xlink:href="#ArialMT-67"/>
      <use x="366.845703" xlink:href="#ArialMT-111"/>
      <use x="422.460938" xlink:href="#ArialMT-110"/>
      <use x="478.076172" xlink:href="#ArialMT-115"/>
      <use x="528.076172" xlink:href="#ArialMT-117"/>
      <use x="583.691406" xlink:href="#ArialMT-109"/>
      <use x="666.992188" xlink:href="#ArialMT-112"/>
      <use x="722.607422" xlink:href="#ArialMT-116"/>
      <use x="750.390625" xlink:href="#ArialMT-105"/>
      <use x="772.607422" xlink:href="#ArialMT-111"/>
      <use x="828.222656" xlink:href="#ArialMT-110"/>
      <use x="883.837891" xlink:href="#ArialMT-32"/>
      <use x="911.621094" xlink:href="#ArialMT-40"/>
      <use x="944.921875" xlink:href="#ArialMT-103"/>
      <use x="1000.537109" xlink:href="#ArialMT-47"/>
      <use x="1028.320312" xlink:href="#ArialMT-99"/>
      <use x="1078.320312" xlink:href="#ArialMT-47"/>
      <use x="1106.103516" xlink:href="#ArialMT-100"/>
      <use x="1161.71875" xlink:href="#ArialMT-41"/>
     </g>
    </g>
   </g>
  </g>
 </g>
 <defs>
  <clipPath id="pc42d58ba3c">
   <rect height="217.44" width="334.8" x="54" y="34.56"/>
  </clipPath>
 </defs>
</svg>
